<?xml version="1.0" encoding="UTF-8"?>
<!DOCTYPE svg PUBLIC "-//W3C//DTD SVG 1.1//EN" "http://www.w3.org/Graphics/SVG/1.1/DTD/svg11.dtd">
<svg xmlns="http://www.w3.org/2000/svg" style="background: transparent; background-color: transparent; color-scheme: dark;" xmlns:xlink="http://www.w3.org/1999/xlink" version="1.1" width="132px" height="41px" viewBox="-0.5 -0.5 132 41"><defs><linearGradient x1="0%" y1="0%" x2="100%" y2="0%" id="drawio-svg-cI-n1ml90MrYuatKVuvj-gradient-_9933ff-1-_ff33ff-1-e-0"><stop offset="0%" stop-color="#9933FF" stop-opacity="1" style="stop-color: rgb(153, 51, 255); stop-opacity: 1;"/><stop offset="100%" stop-color="#FF33FF" stop-opacity="1" style="stop-color: rgb(255, 51, 255); stop-opacity: 1;"/></linearGradient></defs><g><g data-cell-id="0"><g data-cell-id="1"><g data-cell-id="KahWduH1uOAwLas7zCkP-6"><g><path d="M 0 40 L 51.46 40 C 53.33 40 54.84 39.1 54.84 38 L 54.84 32 L 75.16 32 L 75.16 38 C 75.16 39.1 76.67 40 78.54 40 L 130 40 L 112.4 24 L 130 8 L 95.47 8 L 95.47 2 C 95.47 0.9 93.95 0 92.08 0 L 37.92 0 C 36.05 0 34.53 0.9 34.53 2 L 34.53 8 L 0 8 L 17.6 24 Z" fill="url(#drawio-svg-cI-n1ml90MrYuatKVuvj-gradient-_9933ff-1-_ff33ff-1-e-0)" stroke="#000000" stroke-miterlimit="10" pointer-events="all" style="fill: url(&quot;#drawio-svg-cI-n1ml90MrYuatKVuvj-gradient-_9933ff-1-_ff33ff-1-e-0&quot;); stroke: rgb(255, 255, 255);"/><path d="M 54.84 38 C 54.84 36.9 53.33 36 51.46 36 L 37.92 36 C 36.05 36 34.53 35.1 34.53 34 C 34.53 32.9 36.05 32 37.92 32 L 92.08 32 C 93.95 32 95.47 32.9 95.47 34 C 95.47 35.1 93.95 36 92.08 36 L 78.54 36 C 76.67 36 75.16 36.9 75.16 38 M 34.53 34 L 34.53 8 M 95.47 34 L 95.47 8" fill="none" stroke="#000000" stroke-miterlimit="10" pointer-events="all" style="stroke: rgb(255, 255, 255);"/></g></g></g></g></g></svg>