<?xml version="1.0" encoding="UTF-8"?>
<!DOCTYPE svg PUBLIC "-//W3C//DTD SVG 1.1//EN" "http://www.w3.org/Graphics/SVG/1.1/DTD/svg11.dtd">
<svg xmlns="http://www.w3.org/2000/svg" style="background: transparent; background-color: transparent; color-scheme: dark;" xmlns:xlink="http://www.w3.org/1999/xlink" version="1.1" width="95px" height="70px" viewBox="-0.5 -0.5 95 70"><defs/><g><g data-cell-id="0"><g data-cell-id="1"><g data-cell-id="87wov0h8TnORgS1ELqxO-1"><g/><g data-cell-id="87wov0h8TnORgS1ELqxO-2"><g><rect x="27" y="18.64" width="38" height="10" fill="#e62323" stroke="#000000" transform="rotate(90,46,23.64)" pointer-events="all" style="fill: rgb(230, 35, 35); stroke: rgb(255, 255, 255);"/></g></g><g data-cell-id="87wov0h8TnORgS1ELqxO-3"><g><path d="M 22 18.64 L 32 8.64 L 50 8.64 L 40 18.64 Z" fill="#0f0f52" stroke="#000000" stroke-miterlimit="10" transform="rotate(90,36,13.64)" pointer-events="all" style="fill: rgb(15, 15, 82); stroke: rgb(255, 255, 255);"/></g></g><g data-cell-id="87wov0h8TnORgS1ELqxO-4"><g><path d="M 42 18.64 L 52 8.64 L 70 8.64 L 60 18.64 Z" fill="#0f0f52" stroke="#000000" stroke-miterlimit="10" transform="translate(0,13.64)scale(1,-1)translate(0,-13.64)rotate(-90,56,13.64)" pointer-events="all" style="fill: rgb(15, 15, 82); stroke: rgb(255, 255, 255);"/></g></g><g data-cell-id="87wov0h8TnORgS1ELqxO-5"><g><path d="M 41 42.64 L 46 42.64 Q 51 42.64 51 47.64 Q 51 52.64 46 52.64 L 41 52.64 Z" fill="#0f0f52" stroke="#000000" stroke-miterlimit="10" transform="rotate(90,46,47.64)" pointer-events="all" style="fill: rgb(15, 15, 82); stroke: rgb(255, 255, 255);"/></g></g></g><g data-cell-id="87wov0h8TnORgS1ELqxO-6"><g/><g data-cell-id="87wov0h8TnORgS1ELqxO-7"><g><rect x="59.53" y="40.47" width="28.42" height="7.48" fill="#e62323" stroke="#000000" transform="rotate(120,73.74,44.21)" pointer-events="all" style="fill: rgb(230, 35, 35); stroke: rgb(255, 255, 255);"/></g></g><g data-cell-id="87wov0h8TnORgS1ELqxO-8"><g><path d="M 60.27 37.21 L 70.27 29.73 L 81.21 29.73 L 71.21 37.21 Z" fill="#0f0f52" stroke="#000000" stroke-miterlimit="10" transform="rotate(120,70.74,33.47)" pointer-events="all" style="fill: rgb(15, 15, 82); stroke: rgb(255, 255, 255);"/></g></g><g data-cell-id="87wov0h8TnORgS1ELqxO-9"><g><path d="M 74.27 45.21 L 84.27 37.73 L 95.21 37.73 L 85.21 45.21 Z" fill="#0f0f52" stroke="#000000" stroke-miterlimit="10" transform="translate(0,41.47)scale(1,-1)translate(0,-41.47)rotate(-120,84.74,41.47)" pointer-events="all" style="fill: rgb(15, 15, 82); stroke: rgb(255, 255, 255);"/></g></g><g data-cell-id="87wov0h8TnORgS1ELqxO-10"><g><path d="M 61 56 L 64.74 56 Q 68.48 56 68.48 59.74 Q 68.48 63.48 64.74 63.48 L 61 63.48 Z" fill="#0f0f52" stroke="#000000" stroke-miterlimit="10" transform="rotate(120,64.74,59.74)" pointer-events="all" style="fill: rgb(15, 15, 82); stroke: rgb(255, 255, 255);"/></g></g></g><g data-cell-id="87wov0h8TnORgS1ELqxO-11"><g/><g data-cell-id="87wov0h8TnORgS1ELqxO-12"><g><rect x="5.09" y="39.83" width="28.42" height="7.48" fill="#e62323" stroke="#000000" transform="rotate(60,19.3,43.57)" pointer-events="all" style="fill: rgb(230, 35, 35); stroke: rgb(255, 255, 255);"/></g></g><g data-cell-id="87wov0h8TnORgS1ELqxO-13"><g><path d="M -2.17 44.57 L 7.83 37.09 L 18.77 37.09 L 8.77 44.57 Z" fill="#0f0f52" stroke="#000000" stroke-miterlimit="10" transform="rotate(60,8.3,40.83)" pointer-events="all" style="fill: rgb(15, 15, 82); stroke: rgb(255, 255, 255);"/></g></g><g data-cell-id="87wov0h8TnORgS1ELqxO-14"><g><path d="M 11.83 37.57 L 21.83 30.09 L 32.77 30.09 L 22.77 37.57 Z" fill="#0f0f52" stroke="#000000" stroke-miterlimit="10" transform="translate(0,33.83)scale(1,-1)translate(0,-33.83)rotate(-60,22.3,33.83)" pointer-events="all" style="fill: rgb(15, 15, 82); stroke: rgb(255, 255, 255);"/></g></g><g data-cell-id="87wov0h8TnORgS1ELqxO-15"><g><path d="M 24.56 55.36 L 28.3 55.36 Q 32.04 55.36 32.04 59.1 Q 32.04 62.84 28.3 62.84 L 24.56 62.84 Z" fill="#0f0f52" stroke="#000000" stroke-miterlimit="10" transform="rotate(60,28.3,59.1)" pointer-events="all" style="fill: rgb(15, 15, 82); stroke: rgb(255, 255, 255);"/></g></g></g></g></g></g></svg>