<?xml version="1.0" encoding="UTF-8"?>
<!DOCTYPE svg PUBLIC "-//W3C//DTD SVG 1.1//EN" "http://www.w3.org/Graphics/SVG/1.1/DTD/svg11.dtd">
<svg xmlns="http://www.w3.org/2000/svg" style="background: transparent; background-color: transparent; color-scheme: dark;" xmlns:xlink="http://www.w3.org/1999/xlink" version="1.1" width="82px" height="55px" viewBox="-0.5 -0.5 82 55"><defs/><g><g data-cell-id="0"><g data-cell-id="1"><g data-cell-id="h6MzbG6Sz8g7ls4q7U25-1"><g/><g data-cell-id="h6MzbG6Sz8g7ls4q7U25-2"><g><path d="M 1 10 L 11 0 L 44 0 L 34 10 Z" fill="#ff9933" stroke="none" transform="translate(22.5,0)scale(-1,1)translate(-22.5,0)" pointer-events="all" style="fill: rgb(255, 153, 51);"/></g></g><g data-cell-id="h6MzbG6Sz8g7ls4q7U25-3"><g><rect x="60" y="10" width="20" height="13" fill="#ff9933" stroke="none" pointer-events="all" style="fill: rgb(255, 153, 51);"/></g></g><g data-cell-id="h6MzbG6Sz8g7ls4q7U25-4"><g><rect x="0" y="0" width="20" height="23" fill="#ff9933" stroke="none" pointer-events="all" style="fill: rgb(255, 153, 51);"/></g></g><g data-cell-id="h6MzbG6Sz8g7ls4q7U25-5"><g><rect x="20" y="10" width="30" height="13" fill="#ff9933" stroke="none" pointer-events="all" style="fill: rgb(255, 153, 51);"/></g></g><g data-cell-id="h6MzbG6Sz8g7ls4q7U25-6"><g><rect x="7" y="12.75" width="43" height="5.5" fill="#e6d0de" stroke="#000000" pointer-events="all" style="fill: rgb(230, 208, 222); stroke: rgb(255, 255, 255);"/></g></g><g data-cell-id="h6MzbG6Sz8g7ls4q7U25-7"><g><path d="M 33 20 L 43 10 L 79 10 L 69 20 Z" fill="#ff9933" stroke="none" pointer-events="all" style="fill: rgb(255, 153, 51);"/></g></g><g data-cell-id="h6MzbG6Sz8g7ls4q7U25-8"><g><rect x="0" y="17" width="80" height="36" fill="#ff9933" stroke="none" pointer-events="all" style="fill: rgb(255, 153, 51);"/></g></g><g data-cell-id="h6MzbG6Sz8g7ls4q7U25-9"><g><path d="M 0 53 L 0 0 L 34 0 L 44 10 L 80 10 L 80 53 L 40 53 L 0 53" fill="none" stroke="#000000" stroke-miterlimit="10" pointer-events="stroke" style="stroke: rgb(255, 255, 255);"/></g></g><g data-cell-id="h6MzbG6Sz8g7ls4q7U25-10"><g><path d="M 43.64 9.85 L 36.36 17 L 0 17" fill="none" stroke="#000000" stroke-miterlimit="10" pointer-events="stroke" style="stroke: rgb(255, 255, 255);"/></g></g></g></g></g></g></svg>