<?xml version="1.0" encoding="UTF-8"?>
<!DOCTYPE svg PUBLIC "-//W3C//DTD SVG 1.1//EN" "http://www.w3.org/Graphics/SVG/1.1/DTD/svg11.dtd">
<svg xmlns="http://www.w3.org/2000/svg" style="background: transparent; background-color: transparent; color-scheme: light dark;" xmlns:xlink="http://www.w3.org/1999/xlink" version="1.1" width="76px" height="67px" viewBox="-0.5 -0.5 76 67"><defs/><g><g data-cell-id="0"><g data-cell-id="1"><g data-cell-id="y_ivUx4tPfdZMlM74fzy-33"><g><path d="M 55.93 12.76 L 56.02 16.77 C 57.32 16.81 58.33 17 59.53 17.32 C 60.46 18.88 61.66 21.74 62.4 25.61 L 56.11 25.61 L 56.11 26.53 L 62.58 26.53 C 62.86 28.33 63.05 30.54 63.09 32.84 L 56.11 32.84 L 56.11 33.76 L 63.09 33.76 C 63.09 35.88 62.91 37.95 62.58 40.07 L 56.11 40.07 L 56.11 40.99 L 62.35 40.99 C 61.57 44.86 60.37 47.76 59.44 49.28 C 58.24 49.6 57.22 49.79 55.93 49.83 L 55.84 53.84 C 66.98 53.52 75.8 44.45 75.8 33.25 C 75.85 22.15 67.07 13.08 55.93 12.76 Z M 71.83 32.84 L 64.39 32.84 C 64.39 30.72 64.2 28.65 63.88 26.53 L 70.4 26.53 C 71.27 28.46 71.74 30.67 71.83 32.84 Z M 61.06 17.82 C 64.8 19.21 67.9 22.2 69.79 25.65 L 63.65 25.65 C 63 22.15 61.94 19.39 61.06 17.82 Z M 61.06 48.82 C 61.94 47.26 63 44.49 63.69 40.99 L 69.79 40.99 C 67.85 44.4 64.8 47.44 61.06 48.82 Z M 63.88 40.07 C 64.16 38.27 64.39 36.11 64.39 33.76 L 71.87 33.76 C 71.78 35.93 71.27 38.04 70.4 40.07 Z M 50.75 49.28 C 51.95 49.6 53.8 49.79 55.14 49.83 L 55.14 40.99 L 47.89 40.99 C 48.63 44.86 49.83 47.72 50.75 49.28 Z M 47.65 40.07 L 55.14 40.07 L 55.14 33.76 L 47.15 33.76 C 47.19 35.88 47.38 38 47.65 40.07 Z M 47.15 32.84 L 55.14 32.84 L 55.14 26.58 L 47.65 26.58 C 47.33 28.65 47.15 30.72 47.15 32.84 Z M 34.57 33.3 C 34.57 21.97 43.96 12.76 55.33 12.76 L 55.88 12.76 L 55.88 0 L 29.58 4.1 L 29.58 62.5 L 55.84 66.6 L 55.88 53.84 L 55.33 53.84 C 43.96 53.84 34.57 44.68 34.57 33.3 Z M 45.9 33.76 L 38.6 33.76 C 38.69 35.93 39.2 38.04 40.07 40.07 L 46.41 40.07 C 46.13 38 45.94 35.88 45.9 33.76 Z M 47.84 25.56 L 55.14 25.56 L 55.14 16.77 C 53.8 16.81 51.95 17.04 50.75 17.36 C 49.78 18.93 48.63 21.74 47.84 25.56 Z M 46.41 26.58 L 40.03 26.58 C 39.15 28.56 38.64 30.67 38.6 32.89 L 45.9 32.89 C 45.94 30.54 46.13 28.37 46.41 26.58 Z M 40.72 40.99 C 42.57 44.35 45.57 47.35 49.27 48.78 C 48.39 47.21 47.38 44.49 46.68 40.99 Z M 49.23 17.87 C 45.57 19.3 42.57 22.2 40.72 25.56 L 46.68 25.56 C 47.33 22.11 48.35 19.48 49.23 17.87 Z M 9.75 52.32 L 13.08 52.32 L 13.08 49.1 L 9.71 49.1 Z M 3.24 52.32 L 6.38 52.32 L 6.38 49.1 L 3.24 49.1 Z M 17.43 47.26 L 19.27 49.1 L 16.32 49.1 L 16.32 52.32 L 19.27 52.32 L 17.61 54.67 L 19.55 56.1 L 24.5 50.48 L 19.32 45.32 Z M 9.85 32.7 L 6.56 32.7 L 6.56 35.79 L 9.85 35.79 Z M 0 35.83 L 3.19 35.83 L 3.19 32.75 L 0 32.75 Z M 16.04 28.6 L 20.38 32.75 L 12.94 32.75 L 12.94 35.83 L 20.38 35.83 L 16.04 39.98 L 17.93 41.87 L 25.51 34.31 L 17.93 26.71 Z M 9.85 16.4 L 3.37 16.4 L 3.37 19.67 L 9.85 19.67 Z M 17.7 21.42 L 19.6 23.31 L 24.87 18.05 L 19.6 12.8 L 17.7 14.69 L 19.74 16.4 L 13.13 16.4 L 13.13 19.67 L 19.69 19.67 Z" fill="#ff6a00" stroke="none" pointer-events="all" style="fill: rgb(255, 106, 0);"/></g></g></g></g></g></svg>